# AST/ASF file generated using VICON BodyLanguage
# -----------------------------------------------
:version 1.10
:name VICON
:units
  mass 1.0
  length 0.45
  angle deg
:documentation
   .ast/.asf automatically generated from VICON data using
   VICON BodyBuilder and BodyLanguage model FoxedUp or BRILLIANT.MOD
:root
   order TX TY TZ RX RY RZ
   axis XYZ
   position 0 0 0  
   orientation 0 0 0 
:bonedata
  begin
     id 1 
     name lhipjoint
     direction 0.610259 -0.730986 0.305356 
     length 2.50941 
     axis 0 0 0  XYZ
  end
  begin
     id 2 
     name lfemur
     direction 0.34202 -0.939693 0  
     length 7.48822  
     axis 0 0 20  XYZ
    dof rx ry rz
    limits (-160.0 20.0)
           (-70.0 70.0)
           (-60.0 70.0)
  end
  begin
     id 3 
     name ltibia
     direction 0.34202 -0.939693 0   
     length 7.60141   
     axis 0 0 20   XYZ
    dof rx
    limits (-10.0 170.0)
  end
  begin
     id 4 
     name lfoot
     direction 0.0673488 -0.185039 0.980421   
     length 2.04049   
     axis -90 7.62852e-016 20   XYZ
    dof rx rz
    limits (-45.0 90.0)
           (-70.0 20.0)
  end
  begin
     id 5 
     name ltoes
     direction 1.5356e-011 -4.21729e-011 1   
     length 1.02897   
     axis -90 7.62852e-016 20   XYZ
    dof rx
    limits (-90.0 20.0)
  end
  begin
     id 6 
     name rhipjoint
     direction -0.57612 -0.754205 0.315056   
     length 2.43216  
     axis 0 0 0  XYZ 
  end
  begin
     id 7 
     name rfemur
     direction -0.34202 -0.939693 0   
     length 7.42799   
     axis 0 0 -20   XYZ
    dof rx ry rz
    limits (-160.0 20.0)
           (-70.0 70.0)
           (-70.0 60.0)
  end
  begin
     id 8 
     name rtibia
     direction -0.34202 -0.939693 0   
     length 7.69484   
     axis 0 0 -20   XYZ
    dof rx
    limits (-10.0 170.0)
 end
 begin
     id 9 
     name rfoot
     direction -0.111837 -0.30727 0.945028   
     length 2.15769  
     axis -90 -7.62852e-016 -20   XYZ
    dof rx rz
    limits (-45.0 90.0)
           (-20.0 70.0)
  end
  begin
     id 10 
     name rtoes
     direction -1.53539e-011 -4.21878e-011 1   
     length 1.07391   
     axis -90 -7.62852e-016 -20   XYZ
    dof rx
    limits (-90.0 20.0)
  end
  begin
     id 11 
     name lowerback
     direction 0.00552624 0.990109 -0.140195   
     length 2.12403   
     axis 0 0 0   XYZ
    dof rx ry rz
    limits (-20.0 45.0)
           (-30.0 30.0)
           (-30.0 30.0)
  end
  begin
     id 12 
     name upperback
     direction 0.00361898 0.999976 -0.00584723   
     length 2.13232   
     axis 0 0 0   XYZ
    dof rx ry rz
    limits (-20.0 45.0)
           (-30.0 30.0)
           (-30.0 30.0)
  end
  begin
     id 13 
     name thorax
     direction -0.000331275 0.998253 0.0590847   
     length 2.17688   
     axis 0 0 0   XYZ
    dof rx ry rz
    limits (-20.0 45.0)
           (-30.0 30.0)
           (-30.0 30.0)
  end
  begin
     id 14 
     name lowerneck
     direction -0.0561561 0.979832 0.19177   
     length 1.64159   
     axis 0 0 0   XYZ
    dof rx ry rz
    limits (-20.0 45.0)
           (-30.0 30.0)
           (-30.0 30.0)
  end
  begin
     id 15 
     name upperneck
     direction 0.0827153 0.979385 -0.184293   
     length 1.68939   
     axis 0 0 0   XYZ
    dof rx ry rz
    limits (-20.0 45.0)
           (-30.0 30.0)
           (-30.0 30.0)
  end
  begin
     id 16
     name head
     direction 0.0278583 0.995936 -0.0856488  
     length 1.70207  
     axis 0 0 0   XYZ
    dof rx ry rz
    limits (-20.0 45.0)
           (-30.0 30.0)
           (-30.0 30.0)
  end
  begin
     id 17 
     name lclavicle
     direction 0.950993 0.301131 -0.0702275  
     length 3.41652  
     axis 0 0 0   XYZ
    dof ry rz
    limits (-20.0 10.0)
           (0.0 20.0)
  end
  begin
     id 18 
     name lhumerus
     direction 1 -4.48981e-011 -3.9662e-029   
     length 5.32955   
     axis 180 -30 -90   XYZ
    dof rx ry rz
    limits (-60.0 90.0)
           (-90.0 90.0)
           (-90.0 90.0)
  end
  begin
     id 19
     name lradius
     direction 1 -4.48925e-011 -9.0549e-027   
     length 3.69232   
     axis 180 -30 -90   XYZ
    dof rx
    limits (-10.0 170.0)
  end
  begin
     id 20
     name lwrist
     direction 1 -4.49007e-011 -1.49005e-026   
     length 1.84616   
     axis 9.0955e-015 90 90   XYZ
    dof ry
    limits (-180.0 0.0)
 end
  begin
     id 21 
     name lhand
     direction 1 -4.49016e-011 -2.98023e-026   
     length 0.536598   
     axis 1.90115e-014 90 90   XYZ
    dof rx rz
    limits (-90.0 90.0)
           (-45.0 45.0)
  end
  begin
     id 22 
     name lfingers
     direction 1 -4.48924e-011 -5.9578e-026   
     length 0.432619   
     axis 3.80223e-014 90 90   XYZ
    dof rx
    limits (0.0 90.0)
  end
  begin
     id 23
     name lthumb
     direction 0.707107 -6.34947e-011 0.707107   
     length 0.621157   
     axis -90 45 -3.84942e-014   XYZ
    dof rx rz
    limits (-45.0 45.0)
           (-45.0 45.0)
  end
  begin
     id 24 
     name rclavicle
     direction -0.955495 0.276497 -0.102848   
     length 3.36357  
     axis 0 0 0   XYZ 
    dof ry rz
    limits (-10.0 20.0)
           (-20.0 0.0)
  end
  begin
     id 25 
     name rhumerus
     direction -1 -4.48961e-011 3.30983e-027  
     length 5.23431   
     axis 180 30 90   XYZ
    dof rx ry rz
    limits (-90.0 60.0)
           (-90.0 90.0)
           (-90.0 90.0)
  end
  begin
     id 26 
     name rradius
     direction -1 -4.48965e-011 -6.63263e-027   
     length 3.55301   
     axis 180 30 90   XYZ
    dof rx
    limits (-10.0 170.0)
  end
  begin
     id 27 
     name rwrist
     direction -1 -4.48942e-011 -1.48958e-026   
     length 1.77651   
     axis 9.0955e-015 -90 -90   XYZ
    dof ry
    limits (-180.0 0.0)
  end
  begin
     id 28
     name rhand
     direction -1 -4.48977e-011 -2.97966e-026   
     length 0.772522   
     axis 1.90115e-014 -90 -90   XYZ
    dof rx rz
    limits (-90.0 90.0)
           (-45.0 45.0)
  end
  begin
     id 29
     name rfingers
     direction -1 -4.49135e-011 -5.96389e-026   
     length 0.622827   
     axis 3.80223e-014 -90 -90   XYZ
    dof rx
    limits (0.0 90.0)
  end
  begin
     id 30
     name rthumb
     direction -0.707107 -6.34969e-011 0.707107   
     length 0.894259   
     axis -90 -45 3.84942e-014   XYZ
    dof rx rz
    limits (-45.0 45.0)
           (-45.0 45.0)
  end
:hierarchy
  begin
    root lhipjoint rhipjoint lowerback
    lhipjoint lfemur
    lfemur ltibia
    ltibia lfoot
    lfoot ltoes
    rhipjoint rfemur
    rfemur rtibia
    rtibia rfoot
    rfoot rtoes
    lowerback upperback
    upperback thorax
    thorax lowerneck lclavicle rclavicle
    lowerneck upperneck
    upperneck head
    lclavicle lhumerus
    lhumerus lradius
    lradius lwrist
    lwrist lhand lthumb
    lhand lfingers
    rclavicle rhumerus
    rhumerus rradius
    rradius rwrist
    rwrist rhand rthumb
    rhand rfingers
  end

#!OML:ASF F:\VICON\USERDATA\INSTALL\rory3\rory3.ASF
:FULLY-SPECIFIED
:DEGREES
99
root -0.283983 18.1857 2.47839 1.84772 -1.39539 2.27153
lowerback 5.71936 -0.296893 -2.99752
upperback -1.35414 -0.632865 -0.300912
thorax -4.58473 -0.235463 1.43175
lowerneck -18.6964 -8.05459 -13.8025
upperneck 32.0418 -10.819 10.0451
head 15.8958 -4.95823 4.52933
rclavicle 3.47563e-015 -3.97569e-015
rhumerus -33.5854 -8.97519 -85.1483
rradius 28.5403
rwrist 8.47196
rhand -15.1307 9.55918
rfingers 7.12502
rthumb 11.0387 -20.1306
lclavicle 3.47563e-015 -3.97569e-015
lhumerus -35.2711 8.21012 84.1348
lradius 31.2037
lwrist -9.06413
lhand -16.5711 24.9712
lfingers 7.12502
lthumb 9.64914 54.7302
rfemur -6.29969 0.762204 21.3585
rtibia 23.7676
rfoot -14.2167 -8.68951
rtoes 4.44011
lfemur 4.79042 -1.43432 -23.5536
ltibia -1.03368e-014
lfoot -1.27761 1.92966
ltoes -6.60148
100
root -0.288743 18.1843 2.47271 1.82771 -1.38513 2.31855
lowerback 5.71946 -0.280561 -2.97173
upperback -1.28889 -0.610494 -0.36166
thorax -4.51868 -0.227579 1.35194
lowerneck -18.7396 -8.09836 -13.7906
upperneck 32.0137 -10.9024 10.1031
head 15.9105 -4.98224 4.53294
rclavicle 9.43373e-015 -7.95139e-016
rhumerus -33.4611 -9.0359 -85.2047
rradius 28.4988
rwrist 8.49581
rhand -15.2184 9.41037
rfingers 7.12502
rthumb 10.9541 -20.2839
lclavicle 9.43373e-015 -7.95139e-016
lhumerus -35.2302 8.13715 84.1025
lradius 31.25
lwrist -9.00115
lhand -16.8373 25.0808
lfingers 7.12502
lthumb 9.39233 54.8516
rfemur -6.27723 0.695213 21.3044
rtibia 23.8088
rfoot -14.3347 -8.53201
rtoes 4.94636
lfemur 4.80321 -1.44538 -23.5884
ltibia 1.59028e-015
lfoot -1.26768 1.94215
ltoes -6.83227
101
root -0.295433 18.185 2.46702 1.79783 -1.43611 2.31872
lowerback 5.81611 -0.252724 -2.97605
upperback -1.32263 -0.578046 -0.363683
thorax -4.61007 -0.209716 1.35015
lowerneck -18.6188 -8.08736 -13.8294
upperneck 32.0544 -10.9126 10.1522
head 15.9111 -4.98953 4.56383
rclavicle 9.62553e-015 8.97016e-015
rhumerus -33.5418 -8.97816 -85.1955
rradius 28.4941
rwrist 8.58638
rhand -15.2306 9.41793
rfingers 7.12502
rthumb 10.9423 -20.2769
lclavicle 9.62553e-015 8.97016e-015
lhumerus -35.4055 8.07826 84.058
lradius 31.3021
lwrist -8.86916
lhand -16.7817 25.0993
lfingers 7.12502
lthumb 9.44601 54.8677
rfemur -6.24549 0.702069 21.3191
rtibia 23.8329
rfoot -14.3866 -8.44767
rtoes 5.42111
lfemur 4.82484 -1.39383 -23.5601
ltibia 1.19271e-014
lfoot -1.27647 1.92799
ltoes -6.79729
102
root -0.302158 18.1854 2.46037 1.81301 -1.49566 2.26877
lowerback 5.89116 -0.249977 -2.97554
upperback -1.3865 -0.576101 -0.312318
thorax -4.71882 -0.205762 1.40382
lowerneck -18.6355 -8.03181 -13.8645
upperneck 32.2582 -10.8459 10.1782
head 16.0083 -4.96416 4.6051
rclavicle -5.44018e-015 4.62174e-015
rhumerus -33.6754 -8.90183 -85.1461
rradius 28.5235
rwrist 8.715
rhand -15.2101 9.62649
rfingers 7.12502
rthumb 10.9621 -20.0673
lclavicle -5.44018e-015 4.62174e-015
lhumerus -35.5928 8.19299 84.0023
lradius 31.2593
lwrist -8.96826
lhand -16.7092 24.9023
lfingers 7.12502
lthumb 9.51596 54.6674
rfemur -6.32745 0.635944 21.3826
rtibia 23.8657
rfoot -14.3471 -8.33188
rtoes 5.4847
lfemur 4.78583 -1.33516 -23.4754
ltibia -4.77083e-015
lfoot -1.25905 1.92028
ltoes -6.51715
103
root -0.308495 18.1862 2.45462 1.76483 -1.51516 2.19672
lowerback 5.95971 -0.268821 -2.9198
upperback -1.36057 -0.597024 -0.271692
thorax -4.72966 -0.217192 1.41721
lowerneck -18.7064 -7.98318 -13.8118
upperneck 32.372 -10.7903 10.1703
head 16.0663 -4.9342 4.60856
rclavicle 4.25679e-015 -2.43511e-015
rhumerus -33.6937 -8.82447 -85.1721
rradius 28.614
rwrist 8.7343
rhand -15.1589 9.51759
rfingers 7.12502
rthumb 11.0115 -20.1736
lclavicle 4.25679e-015 -2.43511e-015
lhumerus -35.5573 8.30952 83.9605
lradius 31.0792
lwrist -9.10595
lhand -16.5698 25.1177
lfingers 7.12502
lthumb 9.65041 54.8767
rfemur -6.28655 0.573239 21.4714
rtibia 23.8635
rfoot -14.3776 -8.22304
rtoes 5.55002
lfemur 4.81471 -1.31192 -23.3686
ltibia -9.54166e-015
lfoot -1.24176 1.92664
ltoes -6.43503
104
root -0.31264 18.1841 2.45037 1.66199 -1.56325 2.12836
lowerback 6.05995 -0.24458 -2.79639
upperback -1.32011 -0.558406 -0.284969
thorax -4.74703 -0.201878 1.33104
lowerneck -18.5964 -7.98479 -13.7519
upperneck 32.3285 -10.8334 10.1899
head 16.023 -4.94549 4.59807
rclavicle 9.23883e-015 3.62782e-015
rhumerus -33.7833 -8.76452 -85.2641
rradius 28.8774
rwrist 8.46152
rhand -15.0835 8.89196
rfingers 7.12502
rthumb 11.0843 -20.7953
lclavicle 9.23883e-015 3.62782e-015
lhumerus -35.4799 8.17304 83.9448
lradius 30.9247
lwrist -9.09356
lhand -16.3435 25.7295
lfingers 7.12502
lthumb 9.86876 55.4782
rfemur -6.15069 0.533115 21.5503
rtibia 23.838
rfoot -14.4392 -8.09789
rtoes 5.69202
lfemur 4.91212 -1.25674 -23.2807
ltibia -1.82882e-014
lfoot -1.23317 1.95289
ltoes -6.66436
105
root -0.318747 18.1812 2.4445 1.62123 -1.62229 2.08363
lowerback 6.10851 -0.197332 -2.73667
upperback -1.31246 -0.492094 -0.282955
thorax -4.76981 -0.17045 1.29331
lowerneck -18.3666 -8.01068 -13.7717
upperneck 32.1587 -10.8992 10.2408
head 15.903 -4.97512 4.60701
rclavicle 5.28332e-015 7.55382e-015
rhumerus -33.907 -8.69401 -85.2757
rradius 29.1094
rwrist 8.13
rhand -14.9636 8.49293
rfingers 7.12502
rthumb 11.1999 -21.1881
lclavicle 5.28332e-015 7.55382e-015
lhumerus -35.513 8.08401 83.9686
lradius 30.9235
lwrist -9.00298
lhand -16.3918 25.6665
lfingers 7.12502
lthumb 9.82212 55.4174
rfemur -6.1136 0.607523 21.63
rtibia 23.8359
rfoot -14.3932 -8.13589
rtoes 5.27505
lfemur 4.93641 -1.19529 -23.2115
ltibia 8.74653e-015
lfoot -1.21839 1.9527
ltoes -7.01167
